<svg width="15" height="15" viewBox="0 0 8 8" fill="none" xmlns="http://www.w3.org/2000/svg">
<path d="M4.03329 5.94167C4.12218 5.94167 4.19718 5.91112 4.25829 5.85C4.3194 5.78889 4.34996 5.71389 4.34996 5.625C4.34996 5.53612 4.3194 5.46112 4.25829 5.4C4.19718 5.33889 4.12218 5.30834 4.03329 5.30834C3.9444 5.30834 3.8694 5.33889 3.80829 5.4C3.74718 5.46112 3.71663 5.53612 3.71663 5.625C3.71663 5.71389 3.74718 5.78889 3.80829 5.85C3.8694 5.91112 3.9444 5.94167 4.03329 5.94167ZM3.74163 4.725H4.23329C4.23329 4.58056 4.25135 4.44862 4.28746 4.32917C4.32357 4.20973 4.43607 4.07223 4.62496 3.91667C4.79718 3.77223 4.9194 3.63056 4.99163 3.49167C5.06385 3.35278 5.09996 3.20001 5.09996 3.03334C5.09996 2.73889 5.00413 2.50278 4.81246 2.325C4.62079 2.14723 4.36663 2.05834 4.04996 2.05834C3.77774 2.05834 3.53746 2.12639 3.32913 2.2625C3.12079 2.39862 2.9694 2.58612 2.87496 2.82501L3.31663 2.99167C3.37774 2.83612 3.4694 2.71528 3.59163 2.62917C3.71385 2.54306 3.85829 2.50001 4.02496 2.50001C4.21385 2.50001 4.36663 2.55139 4.48329 2.65417C4.59996 2.75695 4.65829 2.88889 4.65829 3.05C4.65829 3.17223 4.62218 3.2875 4.54996 3.39584C4.47774 3.50417 4.37218 3.61667 4.23329 3.73334C4.06663 3.87778 3.94301 4.02084 3.86246 4.1625C3.7819 4.30417 3.74163 4.49167 3.74163 4.725ZM3.99996 7.33334C3.53329 7.33334 3.09718 7.24862 2.69163 7.07917C2.28607 6.90973 1.93329 6.675 1.63329 6.375C1.33329 6.075 1.09718 5.72223 0.924959 5.31667C0.752737 4.91112 0.666626 4.47223 0.666626 4C0.666626 3.53334 0.752737 3.09723 0.924959 2.69167C1.09718 2.28612 1.33329 1.93334 1.63329 1.63334C1.93329 1.33334 2.28607 1.09723 2.69163 0.925005C3.09718 0.752783 3.53329 0.666672 3.99996 0.666672C4.46107 0.666672 4.8944 0.752783 5.29996 0.925005C5.70551 1.09723 6.05829 1.33334 6.35829 1.63334C6.65829 1.93334 6.89579 2.28612 7.07079 2.69167C7.24579 3.09723 7.33329 3.53334 7.33329 4C7.33329 4.47223 7.24579 4.91112 7.07079 5.31667C6.89579 5.72223 6.65829 6.075 6.35829 6.375C6.05829 6.675 5.70551 6.90973 5.29996 7.07917C4.8944 7.24862 4.46107 7.33334 3.99996 7.33334ZM3.99996 6.83334C4.78329 6.83334 5.45135 6.55556 6.00413 6C6.5569 5.44445 6.83329 4.77778 6.83329 4C6.83329 3.22223 6.5569 2.55556 6.00413 2.00001C5.45135 1.44445 4.78329 1.16667 3.99996 1.16667C3.20551 1.16667 2.53468 1.44445 1.98746 2.00001C1.44024 2.55556 1.16663 3.22223 1.16663 4C1.16663 4.77778 1.44024 5.44445 1.98746 6C2.53468 6.55556 3.20551 6.83334 3.99996 6.83334Z" fill="#60605C"/>
</svg>
