<svg width="15" height="15" viewBox="0 0 8 8" fill="none" xmlns="http://www.w3.org/2000/svg">
<path d="M3.04996 3.68333L2.76663 4.33333L2.11663 4.61666L2.76663 4.89999L3.04996 5.54999L3.33329 4.89999L3.98329 4.61666L3.33329 4.33333L3.04996 3.68333ZM5.26663 3.58333L5.05829 4.03333L4.60829 4.24166L5.05829 4.45L5.26663 4.89999L5.47496 4.45L5.92496 4.24166L5.47496 4.03333L5.26663 3.58333ZM0.666626 6.66666V1.33333H1.16663L1.78329 2.6H2.86663L2.24996 1.33333H2.99163L3.60829 2.6H4.69163L4.07496 1.33333H4.81663L5.43329 2.6H6.51663L5.89996 1.33333H7.33329V6.66666H0.666626ZM1.16663 3.1V6.16666H6.83329V3.1H1.16663ZM1.16663 3.1V6.16666V3.1Z" fill="#6D6D68"/>
</svg>
