<svg width="15" height="15" viewBox="0 0 8 8" fill="none" xmlns="http://www.w3.org/2000/svg">
<path d="M6.02496 2.90834L5.70829 3.19167C5.64718 3.24723 5.5694 3.27917 5.47496 3.28751C5.38052 3.29584 5.2944 3.27223 5.21663 3.21667C5.13885 3.16112 5.09302 3.08612 5.07913 2.99167C5.06524 2.89723 5.0694 2.8139 5.09163 2.74167L5.23329 2.25834L4.87496 2.05834C4.79718 2.0139 4.74718 1.9514 4.72496 1.87084C4.70274 1.79028 4.70551 1.70556 4.73329 1.61667C4.76107 1.52778 4.80829 1.46112 4.87496 1.41667C4.94163 1.37223 5.02218 1.35001 5.11663 1.35001H5.52496L5.64996 0.975007C5.67774 0.891674 5.72357 0.818063 5.78746 0.754174C5.85135 0.690285 5.93052 0.65834 6.02496 0.65834C6.1194 0.65834 6.19857 0.690285 6.26246 0.754174C6.32635 0.818063 6.37218 0.891674 6.39996 0.975007L6.52496 1.35001H6.93329C7.01663 1.35001 7.0944 1.37362 7.16663 1.42084C7.23885 1.46806 7.28885 1.53334 7.31663 1.61667C7.3444 1.69445 7.34718 1.7764 7.32496 1.86251C7.30274 1.94862 7.24996 2.0139 7.16663 2.05834L6.80829 2.25834L6.94996 2.74167C6.97774 2.81945 6.98468 2.90417 6.97079 2.99584C6.9569 3.08751 6.91107 3.16112 6.83329 3.21667C6.75552 3.26667 6.6694 3.2889 6.57496 3.28334C6.48052 3.27778 6.40274 3.24723 6.34163 3.19167L6.02496 2.90834ZM6.02496 2.40834C6.1194 2.40834 6.19857 2.3764 6.26246 2.31251C6.32635 2.24862 6.35829 2.16945 6.35829 2.07501C6.35829 1.98056 6.32635 1.9014 6.26246 1.83751C6.19857 1.77362 6.1194 1.74167 6.02496 1.74167C5.93052 1.74167 5.85135 1.77362 5.78746 1.83751C5.72357 1.9014 5.69163 1.98056 5.69163 2.07501C5.69163 2.16945 5.72357 2.24862 5.78746 2.31251C5.85135 2.3764 5.93052 2.40834 6.02496 2.40834ZM4.40829 6.07501C4.53051 6.37501 4.48746 6.65973 4.27913 6.92917C4.07079 7.19862 3.79718 7.33334 3.45829 7.33334C3.28051 7.33334 3.1194 7.29028 2.97496 7.20417C2.83051 7.11806 2.71663 6.98612 2.63329 6.80834C2.26107 6.84723 1.92218 6.71528 1.61663 6.41251C1.31107 6.10973 1.1694 5.77223 1.19163 5.40001C1.02496 5.31112 0.895793 5.1764 0.804126 4.99584C0.712459 4.81528 0.666626 4.64445 0.666626 4.48334C0.666626 4.11112 0.797181 3.83473 1.05829 3.65417C1.3194 3.47362 1.63329 3.4639 1.99996 3.62501L2.49996 3.82501C2.5944 3.61945 2.7319 3.45973 2.91246 3.34584C3.09301 3.23195 3.29163 3.16945 3.50829 3.15834V2.44167H3.91663V3.19167C4.1444 3.23612 4.3444 3.35556 4.51663 3.55001C4.68885 3.74445 4.7944 3.93056 4.83329 4.10834H5.58329V4.52501H4.86663C4.84996 4.74167 4.78607 4.94028 4.67496 5.12084C4.56385 5.3014 4.40552 5.4389 4.19996 5.53334L4.40829 6.07501ZM2.48329 6.31667C2.46663 6.16667 2.47218 6.01251 2.49996 5.85417C2.52774 5.69584 2.5694 5.54167 2.62496 5.39167C2.47496 5.46945 2.32079 5.51667 2.16246 5.53334C2.00413 5.55001 1.8444 5.54723 1.68329 5.52501C1.6944 5.70834 1.78607 5.88612 1.95829 6.05834C2.13051 6.23056 2.30551 6.31667 2.48329 6.31667ZM1.86663 5.04167C2.08885 5.04167 2.32357 4.98195 2.57079 4.86251C2.81801 4.74306 2.98329 4.65556 3.06663 4.60001L1.88329 4.11667C1.7444 4.05556 1.59024 4.06251 1.42079 4.13751C1.25135 4.21251 1.16663 4.32223 1.16663 4.46667C1.16663 4.61112 1.25968 4.74306 1.44579 4.86251C1.6319 4.98195 1.77218 5.04167 1.86663 5.04167ZM3.45829 6.83334C3.63051 6.83334 3.76802 6.7764 3.87079 6.66251C3.97357 6.54862 3.9944 6.4139 3.93329 6.25834L3.43329 4.96667C3.33329 5.12778 3.23329 5.29862 3.13329 5.47917C3.03329 5.65973 2.98329 5.8889 2.98329 6.16667C2.98329 6.27778 3.02357 6.41667 3.10413 6.58334C3.18468 6.75001 3.30274 6.83334 3.45829 6.83334ZM3.99996 5.06667C4.1444 4.98334 4.24163 4.88334 4.29163 4.76667C4.34163 4.65001 4.36663 4.52501 4.36663 4.39167C4.36663 4.19723 4.29579 4.02917 4.15413 3.88751C4.01246 3.74584 3.8444 3.67501 3.64996 3.67501C3.51663 3.67501 3.38746 3.70556 3.26246 3.76667C3.13746 3.82778 3.0444 3.92778 2.98329 4.06667L3.70829 4.35001L3.99996 5.06667Z" fill="#60605C"/>
</svg>
