<svg width="15" height="15" viewBox="0 0 8 8" fill="none" xmlns="http://www.w3.org/2000/svg">
<g clip-path="url(#clip0_222_88)">
<path d="M6.43329 5.63334C6.56663 5.4 6.66663 5.13334 6.66663 4.83334C6.66663 4 5.99996 3.33334 5.16663 3.33334C4.33329 3.33334 3.66663 4 3.66663 4.83334C3.66663 5.66667 4.33329 6.33334 5.16663 6.33334C5.46663 6.33334 5.73329 6.23334 5.96663 6.1L7.03329 7.16667L7.49996 6.70001L6.43329 5.63334ZM5.16663 5.66667C4.69996 5.66667 4.33329 5.3 4.33329 4.83334C4.33329 4.36667 4.69996 4 5.16663 4C5.63329 4 5.99996 4.36667 5.99996 4.83334C5.99996 5.3 5.63329 5.66667 5.16663 5.66667ZM3.99996 6.66667V7.33334C2.15996 7.33334 0.666626 5.84 0.666626 4C0.666626 2.16 2.15996 0.666672 3.99996 0.666672C5.61329 0.666672 6.95663 1.81334 7.26663 3.33334H6.57663C6.36329 2.51334 5.77663 1.84334 4.99996 1.53001V1.66667C4.99996 2.03334 4.69996 2.33334 4.33329 2.33334H3.66663V3.00001C3.66663 3.18334 3.51663 3.33334 3.33329 3.33334H2.66663V4H3.33329V5H2.99996L1.40329 3.40334C1.35996 3.59667 1.33329 3.79334 1.33329 4C1.33329 5.47 2.52996 6.66667 3.99996 6.66667Z" fill="#60605C"/>
</g>
<defs>
<clipPath id="clip0_222_88">
<rect width="8" height="8" fill="white"/>
</clipPath>
</defs>
</svg>
