<svg width="15" height="15" viewBox="0 0 8 8" fill="none" xmlns="http://www.w3.org/2000/svg">
<path d="M1.33333 4.33333C1.7 4.33333 2 4.03333 2 3.66667C2 3.3 1.7 3 1.33333 3C0.966667 3 0.666667 3.3 0.666667 3.66667C0.666667 4.03333 0.966667 4.33333 1.33333 4.33333ZM1.71 4.7C1.58667 4.68 1.46333 4.66667 1.33333 4.66667C1.00333 4.66667 0.69 4.73667 0.406667 4.86C0.16 4.96667 0 5.20667 0 5.47667V6H1.5V5.46333C1.5 5.18667 1.57667 4.92667 1.71 4.7ZM6.66667 4.33333C7.03333 4.33333 7.33333 4.03333 7.33333 3.66667C7.33333 3.3 7.03333 3 6.66667 3C6.3 3 6 3.3 6 3.66667C6 4.03333 6.3 4.33333 6.66667 4.33333ZM8 5.47667C8 5.20667 7.84 4.96667 7.59333 4.86C7.31 4.73667 6.99667 4.66667 6.66667 4.66667C6.53667 4.66667 6.41333 4.68 6.29 4.7C6.42333 4.92667 6.5 5.18667 6.5 5.46333V6H8V5.47667ZM5.41333 4.55C5.02333 4.37667 4.54333 4.25 4 4.25C3.45667 4.25 2.97667 4.38 2.58667 4.55C2.22667 4.71 2 5.07 2 5.46333V6H6V5.46333C6 5.07 5.77333 4.71 5.41333 4.55ZM2.69 5.33333C2.72 5.25667 2.73333 5.20333 2.99333 5.10333C3.31667 4.97667 3.65667 4.91667 4 4.91667C4.34333 4.91667 4.68333 4.97667 5.00667 5.10333C5.26333 5.20333 5.27667 5.25667 5.31 5.33333H2.69ZM4 2.66667C4.18333 2.66667 4.33333 2.81667 4.33333 3C4.33333 3.18333 4.18333 3.33333 4 3.33333C3.81667 3.33333 3.66667 3.18333 3.66667 3C3.66667 2.81667 3.81667 2.66667 4 2.66667ZM4 2C3.44667 2 3 2.44667 3 3C3 3.55333 3.44667 4 4 4C4.55333 4 5 3.55333 5 3C5 2.44667 4.55333 2 4 2Z" fill="#6D6D68"/>
</svg>
